<svg enable-background="new 0 0 512 512" viewBox="0 0 512 512" xmlns="http://www.w3.org/2000/svg"><path d="m323.14 505.771-234.625-113.75c-7.156-3.469-10.145-12.083-6.676-19.239l164.009-338.292c3.469-7.156 12.083-10.145 19.239-6.676l234.625 113.75c7.156 3.469 10.145 12.083 6.676 19.239l-164.009 338.292c-3.469 7.156-12.083 10.145-19.239 6.676z" fill="#ff6f1f"/><path d="m80.598 375.341 35.473-73.168c51.824 25.125 104.335-39.04 195.314 5.068 41.122 19.937 71.704 43.919 92.875 64.216l-63.121 130.197c-2.784 5.743-9.697 8.141-15.439 5.357l-239.745-116.231c-5.742-2.784-8.141-9.696-5.357-15.439z" fill="#2b3b47"/><path d="m348.493 221.34c-18.93 39.045-65.927 55.352-104.972 36.422s-55.352-65.927-36.422-104.972 65.927-55.352 104.972-36.422 55.351 65.928 36.422 104.972z" fill="#fff"/><path d="m289.185 416.732h-260.744c-7.953 0-14.4-6.447-14.4-14.4v-375.953c0-7.953 6.447-14.4 14.4-14.4h260.745c7.953 0 14.4 6.447 14.4 14.4v375.953c-.001 7.953-6.448 14.4-14.401 14.4z" fill="#fff"/><path d="m279.464 408.581h-260.745c-7.953 0-14.4-6.447-14.4-14.4v-375.953c0-7.953 6.447-14.4 14.4-14.4h260.745c7.953 0 14.4 6.447 14.4 14.4v375.953c0 7.953-6.447 14.4-14.4 14.4z" fill="#ff6f1f"/><path d="m4.319 397.025v-81.313c57.594 0 76.852-80.645 177.959-80.645 45.701 0 83.681 8.238 111.585 17.267v144.691c0 6.382-5.174 11.556-11.556 11.556h-266.432c-6.382 0-11.556-5.174-11.556-11.556z" fill="#2b3b47"/><path d="m178.195 141.583c0 43.392-35.176 78.567-78.567 78.567s-78.568-35.176-78.568-78.567 35.176-78.567 78.567-78.567 78.568 35.175 78.568 78.567z" fill="#fff"/></svg>